<?xml version="1.0" encoding="UTF-8" ?>
<!DOCTYPE svg PUBLIC "-//W3C//DTD SVG 1.1//EN" "http://www.w3.org/Graphics/SVG/1.1/DTD/svg11.dtd">
<svg width="1076pt" height="438pt" viewBox="0 0 1076 438" version="1.1" xmlns="http://www.w3.org/2000/svg">
<g id="#ffd600ff">
<path fill="#ffd600" opacity="1.00" d=" M 0.00 0.00 L 281.53 0.00 C 281.46 25.16 281.53 50.32 281.49 75.48 C 259.34 75.55 237.15 78.46 215.84 84.54 C 199.03 89.34 182.73 96.34 168.28 106.24 C 157.05 114.15 146.55 123.90 140.47 136.41 C 134.34 147.80 125.18 157.31 114.61 164.68 C 91.06 181.24 62.75 189.75 34.49 193.76 C 23.07 195.50 11.51 195.68 0.00 196.33 L 0.00 0.00 Z" />
</g>
<g id="#ffffffff">
</g>
<g id="#ff8c17ff">
<path fill="#ff8c17" opacity="1.00" d=" M 202.32 103.24 C 227.64 94.09 254.66 89.82 281.56 90.05 C 281.42 154.53 281.54 219.01 281.50 283.49 C 187.66 283.51 93.83 283.49 0.00 283.50 L 0.00 210.24 C 4.32 210.23 8.64 210.33 12.96 210.23 C 42.49 208.44 72.19 202.25 98.66 188.67 C 116.19 179.62 132.68 166.82 141.94 149.02 C 146.74 139.63 154.02 131.76 162.15 125.15 C 174.13 115.56 187.98 108.56 202.32 103.24 Z" />
</g>
<g id="#000000ff">
<path fill="#000000" opacity="1.00" d=" M 372.72 130.70 C 380.75 122.32 392.58 118.35 404.03 118.56 C 414.48 118.38 425.26 121.75 432.88 129.09 C 439.20 134.92 442.71 143.25 443.68 151.69 C 437.07 151.73 430.47 151.70 423.86 151.71 C 422.83 146.47 419.72 141.67 415.06 138.96 C 406.59 133.67 394.47 135.17 387.61 142.47 C 382.96 147.50 380.81 154.30 379.97 160.99 C 379.13 170.30 380.12 180.45 385.82 188.20 C 391.82 196.52 403.98 199.33 413.19 195.00 C 420.11 191.66 423.70 183.94 424.49 176.61 C 431.14 176.60 437.79 176.56 444.45 176.63 C 443.52 187.25 439.23 197.94 431.00 204.99 C 422.61 212.41 410.89 215.06 399.93 214.05 C 388.20 213.48 376.64 207.92 369.41 198.57 C 361.88 189.17 358.88 176.85 359.11 164.98 C 359.60 152.51 363.54 139.55 372.72 130.70 Z" />
<path fill="#000000" opacity="1.00" d=" M 466.31 131.33 C 480.63 116.35 506.22 114.21 523.06 126.12 C 531.11 131.82 536.20 141.20 537.12 150.98 C 530.54 151.01 523.97 151.03 517.39 150.96 C 516.29 145.56 512.92 140.56 507.96 138.03 C 501.57 134.82 493.71 135.26 487.36 138.36 C 480.43 141.96 476.43 149.46 475.02 156.90 C 472.72 167.78 473.96 180.08 480.82 189.14 C 488.05 198.04 502.12 199.33 511.61 193.43 C 516.83 190.05 519.06 183.80 519.91 177.91 C 513.13 177.85 506.35 178.01 499.58 177.82 C 499.61 172.66 499.57 167.51 499.61 162.35 C 512.55 162.29 525.49 162.16 538.43 162.42 C 538.37 178.95 538.42 195.47 538.40 212.00 C 534.01 212.00 529.62 212.00 525.23 212.00 C 524.46 208.80 523.85 205.55 523.60 202.27 C 518.62 207.63 512.50 212.24 505.16 213.66 C 492.06 215.73 477.73 212.34 467.96 203.09 C 458.07 193.98 453.40 180.25 453.56 167.01 C 453.32 154.13 457.38 140.84 466.31 131.33 Z" />
<path fill="#000000" opacity="1.00" d=" M 563.21 131.14 C 571.32 122.56 583.29 118.33 594.97 118.56 C 606.33 118.34 618.15 122.42 625.79 131.08 C 630.91 136.76 633.77 144.17 634.63 151.71 C 628.04 151.72 621.45 151.68 614.87 151.73 C 613.86 147.24 611.59 142.93 607.82 140.17 C 599.17 133.42 585.42 134.67 578.18 142.93 C 573.93 147.58 572.03 153.83 571.08 159.93 C 569.99 169.57 570.92 180.09 576.75 188.18 C 583.16 197.10 596.72 199.75 606.02 193.94 C 611.87 190.19 614.61 183.26 615.49 176.61 C 622.12 176.58 628.75 176.58 635.39 176.61 C 634.50 187.45 630.02 198.43 621.44 205.41 C 613.09 212.44 601.71 215.06 590.99 214.05 C 578.99 213.49 567.18 207.68 559.94 198.00 C 552.74 188.66 549.83 176.60 550.10 164.95 C 550.53 152.69 554.43 140.03 563.21 131.14 Z" />
<path fill="#000000" opacity="1.00" d=" M 325.62 120.61 C 332.41 120.58 339.21 120.60 346.00 120.60 C 346.00 151.07 346.00 181.53 346.00 212.00 C 339.20 212.00 332.40 212.00 325.60 212.00 C 325.61 181.54 325.56 151.07 325.62 120.61 Z" />
<path fill="#000000" opacity="1.00" d=" M 322.30 230.15 C 324.16 230.11 326.02 230.10 327.88 230.10 C 327.94 247.86 327.90 265.63 327.90 283.39 C 326.02 283.39 324.15 283.37 322.28 283.33 C 322.31 265.60 322.27 247.87 322.30 230.15 Z" />
<path fill="#000000" opacity="1.00" d=" M 434.31 230.13 C 436.10 230.11 437.89 230.11 439.69 230.14 C 439.70 232.74 439.71 235.36 439.74 237.97 C 437.91 237.98 436.09 237.99 434.27 237.99 C 434.29 235.37 434.29 232.75 434.31 230.13 Z" />
<path fill="#000000" opacity="1.00" d=" M 415.34 233.32 C 417.01 233.30 418.69 233.30 420.37 233.32 C 420.42 237.21 420.40 241.10 420.41 245.00 C 422.93 245.00 425.47 245.00 428.00 245.00 C 428.00 246.33 428.00 247.66 428.00 248.99 C 425.45 248.98 422.89 248.99 420.35 249.09 C 420.60 258.25 420.14 267.43 420.57 276.58 C 421.02 280.22 425.44 279.12 427.98 279.06 C 427.98 280.61 427.98 282.17 427.98 283.73 C 424.76 283.59 421.33 284.20 418.31 282.80 C 415.92 281.48 415.17 278.59 415.28 276.05 C 415.29 267.04 415.29 258.02 415.29 249.00 C 413.05 249.00 410.82 249.00 408.59 249.00 C 408.59 247.66 408.59 246.33 408.60 245.00 C 410.82 245.00 413.06 244.99 415.29 245.00 C 415.29 241.10 415.26 237.21 415.34 233.32 Z" />
<path fill="#000000" opacity="1.00" d=" M 450.60 233.36 C 452.34 233.31 454.09 233.29 455.84 233.28 C 455.94 237.18 455.90 241.09 455.90 244.99 C 458.51 244.99 461.12 245.00 463.74 245.04 C 463.72 246.35 463.71 247.67 463.71 248.98 C 461.11 249.00 458.50 249.00 455.91 249.00 C 455.99 258.34 455.74 267.69 456.02 277.02 C 457.05 280.32 461.13 278.98 463.70 279.13 C 463.69 280.64 463.68 282.15 463.67 283.66 C 460.22 283.59 456.52 284.32 453.35 282.60 C 450.86 280.96 450.75 277.67 450.60 275.00 C 450.60 266.35 450.55 257.71 450.64 249.06 C 448.45 249.01 446.26 248.99 444.08 248.98 C 444.08 247.65 444.09 246.33 444.10 245.00 C 446.26 245.00 448.42 245.00 450.59 245.00 C 450.60 241.12 450.59 237.24 450.60 233.36 Z" />
<path fill="#000000" opacity="1.00" d=" M 512.14 233.32 C 513.74 233.30 515.35 233.28 516.97 233.26 C 517.02 237.17 517.00 241.08 517.00 245.00 C 519.63 244.99 522.27 245.00 524.91 245.01 C 524.90 246.33 524.90 247.66 524.92 248.99 C 522.27 249.00 519.63 249.00 517.00 249.00 C 516.99 257.00 517.01 265.00 516.98 273.00 C 516.93 274.92 517.08 276.99 518.25 278.61 C 520.30 279.66 522.67 279.09 524.88 279.10 C 524.88 280.63 524.87 282.16 524.86 283.69 C 521.64 283.57 518.18 284.26 515.17 282.81 C 513.03 281.83 512.03 279.33 512.10 277.09 C 512.07 267.73 512.11 258.37 512.10 249.01 C 509.82 249.00 507.55 248.99 505.28 248.98 C 505.27 247.66 505.26 246.35 505.26 245.05 C 507.53 245.00 509.81 244.99 512.10 244.99 C 512.09 241.10 512.07 237.21 512.14 233.32 Z" />
<path fill="#000000" opacity="1.00" d=" M 342.49 250.68 C 346.35 243.21 356.54 241.89 363.46 245.57 C 367.39 247.81 368.68 252.63 368.87 256.86 C 368.96 265.70 368.88 274.53 368.90 283.36 C 367.14 283.39 365.38 283.40 363.62 283.41 C 363.54 274.94 363.64 266.47 363.58 258.01 C 363.50 254.99 362.79 251.65 360.22 249.76 C 356.22 246.90 350.43 247.69 346.78 250.79 C 344.00 253.40 342.60 257.26 342.71 261.05 C 342.70 268.46 342.70 275.87 342.73 283.28 C 340.97 283.36 339.20 283.42 337.45 283.49 C 337.08 270.68 337.42 257.85 337.27 245.03 C 339.09 245.01 340.92 244.99 342.75 244.99 C 342.72 246.88 342.67 248.78 342.49 250.68 Z" />
<path fill="#000000" opacity="1.00" d=" M 380.98 246.09 C 386.27 243.12 393.10 242.74 398.63 245.32 C 402.71 247.36 405.27 251.90 404.93 256.45 C 403.39 256.43 401.86 256.43 400.32 256.45 C 399.35 253.50 398.30 250.04 394.98 249.01 C 390.31 246.81 382.17 248.01 381.41 254.10 C 381.40 257.67 385.04 259.48 388.05 260.19 C 393.20 261.89 399.39 261.53 403.46 265.63 C 408.36 270.14 406.80 279.17 400.86 282.05 C 394.98 285.03 387.48 285.34 381.57 282.32 C 377.17 280.07 375.05 275.03 374.91 270.30 C 376.52 270.28 378.14 270.27 379.76 270.25 C 380.50 273.89 382.19 277.87 386.06 279.07 C 391.02 281.01 398.18 280.09 400.88 275.00 C 402.12 271.71 399.84 268.36 396.65 267.48 C 391.02 265.29 384.45 265.47 379.45 261.77 C 374.40 257.88 375.52 249.08 380.98 246.09 Z" />
<path fill="#000000" opacity="1.00" d=" M 434.28 245.00 C 436.10 245.00 437.92 245.02 439.75 245.05 C 439.58 257.84 439.88 270.63 439.60 283.42 C 437.86 283.41 436.12 283.41 434.39 283.41 C 434.16 270.61 434.37 257.80 434.28 245.00 Z" />
<path fill="#000000" opacity="1.00" d=" M 469.60 245.00 C 471.36 245.00 473.13 245.00 474.91 245.01 C 474.90 253.33 474.91 261.66 474.89 269.99 C 474.84 273.33 475.98 277.33 479.26 278.85 C 483.13 280.83 488.12 280.37 491.39 277.44 C 494.71 274.26 495.77 269.47 495.99 265.04 C 496.03 258.36 495.98 251.68 496.00 245.00 C 497.66 244.99 499.33 245.00 501.00 245.00 C 501.00 257.80 501.00 270.61 501.00 283.41 C 499.43 283.40 497.86 283.39 496.30 283.38 C 496.28 281.27 496.30 279.16 496.44 277.06 C 492.24 284.33 482.03 286.51 474.95 282.37 C 470.82 279.70 469.73 274.53 469.63 269.95 C 469.54 261.64 469.62 253.32 469.60 245.00 Z" />
<path fill="#000000" opacity="1.00" d=" M 323.96 312.03 C 331.90 298.80 353.29 297.00 363.27 308.76 C 366.02 311.86 367.06 315.96 368.01 319.89 C 364.13 320.06 360.24 319.99 356.36 320.00 C 355.54 316.25 352.83 313.02 349.15 311.83 C 343.33 309.35 336.02 312.58 333.55 318.33 C 330.62 324.98 330.53 333.25 334.19 339.63 C 337.96 346.43 348.88 347.89 353.80 341.63 C 355.73 339.56 355.75 336.51 357.03 334.16 C 360.72 333.97 364.42 334.14 368.11 334.10 C 367.88 342.00 363.42 349.88 356.17 353.33 C 346.81 357.73 334.63 356.12 327.19 348.77 C 317.94 339.21 317.20 323.17 323.96 312.03 Z" />
<path fill="#000000" opacity="1.00" d=" M 787.59 302.51 C 795.40 299.87 804.73 300.52 811.43 305.64 C 815.91 308.96 818.55 314.32 819.10 319.81 C 815.28 319.95 811.46 319.96 807.65 319.81 C 806.89 316.26 804.58 312.85 800.97 311.78 C 795.16 309.42 787.95 312.50 785.34 318.14 C 782.18 324.98 782.24 333.44 786.13 339.98 C 790.11 346.38 800.03 347.49 805.60 342.60 C 807.78 340.63 808.39 337.61 809.18 334.91 C 805.30 334.89 801.43 334.96 797.57 334.81 C 797.60 331.90 797.60 328.99 797.54 326.09 C 804.99 325.90 812.45 326.04 819.91 326.00 C 819.90 335.45 819.91 344.91 819.90 354.36 C 817.31 354.40 814.72 354.41 812.14 354.43 C 811.74 352.68 811.32 350.91 810.97 349.16 C 802.69 359.17 786.21 356.94 778.09 347.89 C 771.40 340.49 769.97 329.55 772.26 320.11 C 774.11 312.23 779.79 305.11 787.59 302.51 Z" />
<path fill="#000000" opacity="1.00" d=" M 589.94 301.66 C 593.96 301.55 597.98 301.61 602.01 301.58 C 604.42 305.18 606.96 308.68 609.25 312.36 C 606.57 312.24 603.77 312.81 601.18 312.10 C 597.33 308.73 593.65 305.17 589.94 301.66 Z" />
<path fill="#000000" opacity="1.00" d=" M 633.30 305.29 C 637.35 301.57 643.27 301.99 648.35 302.48 C 648.41 305.21 648.41 307.94 648.38 310.68 C 646.30 310.69 644.16 310.25 642.16 311.00 C 640.19 312.18 641.15 314.73 640.84 316.60 C 643.16 316.59 645.49 316.59 647.83 316.58 C 647.90 319.01 647.91 321.44 647.89 323.88 C 645.56 323.90 643.23 323.91 640.91 323.91 C 640.90 334.06 640.91 344.21 640.90 354.36 C 637.26 354.42 633.63 354.41 630.00 354.40 C 630.00 344.23 630.00 334.07 630.00 323.90 C 627.99 323.90 625.99 323.90 624.00 323.91 C 623.99 321.46 623.99 319.02 624.00 316.58 C 625.96 316.59 627.93 316.60 629.90 316.64 C 629.88 312.67 630.03 308.10 633.30 305.29 Z" />
<path fill="#000000" opacity="1.00" d=" M 734.01 302.09 C 737.56 302.09 741.13 302.07 744.69 302.14 C 744.70 305.08 744.70 308.02 744.74 310.96 C 741.15 311.01 737.57 311.00 734.00 311.00 C 733.99 308.03 733.99 305.05 734.01 302.09 Z" />
<path fill="#000000" opacity="1.00" d=" M 913.31 302.14 C 916.86 302.07 920.43 302.09 923.99 302.09 C 924.01 319.53 923.99 336.97 924.00 354.41 C 920.47 354.40 916.95 354.39 913.44 354.44 C 913.11 337.02 913.36 319.58 913.31 302.14 Z" />
<path fill="#000000" opacity="1.00" d=" M 936.97 301.66 C 940.97 301.54 944.99 301.62 949.01 301.58 C 951.44 305.16 953.87 308.74 956.23 312.37 C 953.54 312.42 950.87 312.43 948.20 312.31 C 944.54 308.66 940.59 305.33 936.97 301.66 Z" />
<path fill="#000000" opacity="1.00" d=" M 653.62 302.11 C 657.21 302.08 660.80 302.07 664.39 302.13 C 664.40 305.08 664.40 308.04 664.41 311.00 C 660.80 311.00 657.19 311.00 653.60 311.00 C 653.58 308.04 653.58 305.07 653.62 302.11 Z" />
<path fill="#000000" opacity="1.00" d=" M 1020.63 302.11 C 1024.20 302.08 1027.78 302.08 1031.37 302.11 C 1031.40 305.07 1031.40 308.03 1031.41 311.00 C 1027.80 311.00 1024.19 311.00 1020.59 311.00 C 1020.58 308.04 1020.58 305.07 1020.63 302.11 Z" />
<path fill="#000000" opacity="1.00" d=" M 447.04 305.26 C 450.58 305.30 454.12 305.27 457.67 305.33 C 457.73 309.07 457.72 312.80 457.67 316.54 C 460.11 316.59 462.56 316.60 465.01 316.60 C 465.00 319.03 465.00 321.47 464.99 323.91 C 462.56 323.90 460.13 323.90 457.71 323.90 C 457.71 329.94 457.70 335.97 457.70 342.00 C 457.73 343.37 457.62 345.19 459.07 345.93 C 461.02 346.39 463.02 346.13 465.00 346.04 C 465.00 348.92 465.00 351.81 464.99 354.70 C 460.44 354.85 455.62 355.55 451.32 353.67 C 448.68 352.63 446.87 349.88 447.01 347.04 C 446.96 339.32 447.02 331.60 447.00 323.88 C 445.20 323.91 443.37 323.92 441.58 324.01 C 440.50 321.57 440.73 318.88 440.56 316.29 C 442.66 316.60 444.81 316.63 446.94 316.67 C 447.03 312.87 446.97 309.06 447.04 305.26 Z" />
<path fill="#000000" opacity="1.00" d=" M 568.26 322.13 C 571.54 317.69 577.04 314.29 582.72 315.84 C 582.70 319.17 582.70 322.50 582.70 325.83 C 579.48 325.88 575.74 324.96 573.01 327.16 C 570.21 329.11 568.84 332.68 568.90 336.01 C 568.84 342.15 569.03 348.29 568.81 354.43 C 565.22 354.40 561.64 354.44 558.07 354.32 C 558.13 341.76 558.06 329.20 558.10 316.64 C 561.54 316.58 564.98 316.58 568.43 316.62 C 568.39 318.45 568.34 320.29 568.26 322.13 Z" />
<path fill="#000000" opacity="1.00" d=" M 381.93 317.10 C 387.86 314.94 394.42 315.05 400.51 316.47 C 404.13 317.49 407.74 320.13 408.24 324.11 C 409.07 334.18 407.21 344.48 409.61 354.40 C 406.03 354.40 402.45 354.40 398.87 354.42 C 398.66 353.70 398.25 352.28 398.04 351.56 C 392.13 355.93 383.40 357.00 377.00 353.11 C 372.54 350.22 372.37 344.22 373.40 339.56 C 375.20 334.45 381.01 332.90 385.83 332.31 C 389.28 331.82 392.99 331.84 396.16 330.23 C 398.46 328.95 397.43 326.16 396.79 324.23 C 392.46 321.49 384.84 322.50 384.48 328.67 C 380.96 328.73 377.44 328.71 373.92 328.72 C 373.66 323.57 377.16 318.82 381.93 317.10 M 385.64 339.65 C 383.27 340.94 383.05 344.50 384.53 346.50 C 387.31 348.89 391.60 348.47 394.64 346.79 C 397.88 344.50 397.61 340.17 397.67 336.66 C 393.79 338.18 389.32 337.60 385.64 339.65 Z" />
<path fill="#000000" opacity="1.00" d=" M 426.12 322.89 C 428.59 317.66 434.44 315.03 440.04 315.35 C 440.64 318.84 440.30 322.39 440.59 325.91 C 437.41 325.78 433.79 325.05 431.01 327.05 C 427.97 328.94 426.88 332.73 426.77 336.12 C 426.58 342.20 426.81 348.29 426.66 354.38 C 423.10 354.42 419.54 354.42 415.98 354.37 C 416.02 341.78 415.99 329.19 416.00 316.60 C 419.32 316.59 422.64 316.59 425.97 316.59 C 426.00 318.68 426.04 320.78 426.12 322.89 Z" />
<path fill="#000000" opacity="1.00" d=" M 480.49 316.63 C 487.07 314.53 494.85 315.09 500.50 319.31 C 508.42 325.49 509.59 337.61 505.16 346.19 C 498.55 358.68 477.37 358.67 470.81 346.13 C 465.40 336.00 468.67 320.45 480.49 316.63 M 484.38 324.49 C 480.08 326.56 479.11 331.79 479.02 336.10 C 479.40 339.39 479.98 343.03 482.63 345.31 C 484.77 347.37 488.00 347.45 490.74 346.86 C 495.63 345.19 496.93 339.44 496.98 334.87 C 496.56 331.81 496.17 328.39 493.85 326.13 C 491.51 323.54 487.45 323.19 484.38 324.49 Z" />
<path fill="#000000" opacity="1.00" d=" M 516.10 321.98 C 521.13 314.14 534.39 312.83 540.01 320.70 C 540.01 319.67 540.00 317.62 540.00 316.59 C 543.46 316.59 546.93 316.58 550.40 316.62 C 550.42 327.41 550.40 338.20 550.41 348.99 C 550.27 354.00 550.10 359.59 546.35 363.40 C 541.08 368.58 532.82 369.43 525.86 368.18 C 519.84 367.29 513.74 362.68 513.86 356.11 C 517.37 356.09 520.89 356.05 524.41 356.17 C 526.13 362.36 535.69 362.99 538.76 357.65 C 540.46 354.85 539.95 351.49 540.01 348.38 C 533.73 356.02 519.71 354.78 515.18 345.86 C 511.49 338.50 511.62 328.99 516.10 321.98 M 528.30 324.40 C 524.72 326.11 523.42 330.33 523.40 334.03 C 523.51 337.55 524.19 341.58 527.23 343.81 C 530.72 346.41 536.17 345.03 538.29 341.32 C 540.83 336.98 540.53 331.28 538.03 327.00 C 536.06 323.79 531.60 323.08 528.30 324.40 Z" />
<path fill="#000000" opacity="1.00" d=" M 590.11 319.19 C 595.79 315.04 603.38 314.92 610.06 316.01 C 614.12 316.61 618.63 318.73 619.81 323.02 C 621.59 333.40 618.98 344.14 621.40 354.44 C 617.82 354.38 614.23 354.40 610.66 354.42 C 610.46 353.64 610.06 352.10 609.87 351.33 C 605.63 355.22 599.48 355.95 594.01 355.15 C 589.72 354.59 585.57 351.40 584.90 346.97 C 583.90 342.66 584.94 337.40 588.95 334.96 C 595.07 331.22 602.71 332.95 609.07 329.87 C 609.09 328.06 609.88 325.84 608.37 324.40 C 606.22 322.28 602.69 322.71 600.01 323.30 C 597.53 323.91 596.92 326.58 596.37 328.71 C 592.72 328.69 589.07 328.71 585.43 328.76 C 586.09 325.25 587.02 321.39 590.11 319.19 M 596.54 340.49 C 594.71 342.16 595.51 344.77 596.20 346.77 C 599.78 348.61 604.84 348.90 607.65 345.58 C 609.85 343.17 609.18 339.72 609.34 336.75 C 605.19 338.37 600.04 337.35 596.54 340.49 Z" />
<path fill="#000000" opacity="1.00" d=" M 675.22 322.06 C 681.20 314.49 692.81 313.72 700.91 318.13 C 705.22 320.47 707.71 325.15 708.16 329.94 C 704.60 330.03 701.04 330.03 697.48 329.94 C 696.82 326.83 694.48 323.72 691.00 323.84 C 686.79 323.07 683.23 326.59 682.31 330.44 C 681.22 335.12 681.20 340.62 684.28 344.60 C 687.19 348.32 693.71 347.96 696.29 344.02 C 697.08 342.66 697.42 341.10 697.94 339.63 C 701.34 339.58 704.75 339.58 708.16 339.61 C 707.93 346.40 703.05 352.79 696.47 354.62 C 690.81 356.05 684.44 355.79 679.37 352.67 C 675.06 350.19 672.25 345.66 671.23 340.87 C 670.48 334.44 670.76 327.20 675.22 322.06 Z" />
<path fill="#000000" opacity="1.00" d=" M 828.80 323.86 C 834.72 314.36 849.67 312.50 857.65 320.36 C 862.21 324.98 863.67 331.70 863.44 338.00 C 854.39 338.01 845.34 337.99 836.29 338.01 C 836.77 340.24 836.82 342.79 838.55 344.51 C 842.58 349.00 850.82 347.65 853.52 342.32 C 856.62 342.27 859.74 342.26 862.85 342.38 C 861.24 347.92 857.25 353.05 851.51 354.62 C 844.93 356.26 837.23 355.68 831.93 351.07 C 824.47 344.39 823.65 332.14 828.80 323.86 M 836.33 331.09 C 841.73 331.09 847.13 331.11 852.53 331.08 C 851.90 327.37 849.16 323.44 844.97 323.81 C 840.56 323.22 836.83 326.87 836.33 331.09 Z" />
<path fill="#000000" opacity="1.00" d=" M 881.19 316.26 C 887.64 314.58 895.11 315.41 900.38 319.73 C 905.48 323.79 907.41 330.69 906.96 336.99 C 906.95 344.40 902.34 351.77 895.20 354.21 C 887.19 356.85 876.89 355.57 871.65 348.33 C 867.67 343.46 867.61 336.85 868.16 330.90 C 869.13 323.98 874.35 317.92 881.19 316.26 M 884.29 324.24 C 880.64 325.54 878.95 329.52 878.76 333.13 C 878.55 336.65 878.53 340.44 880.48 343.54 C 883.42 348.72 892.48 348.35 894.76 342.72 C 896.82 338.02 896.83 332.11 894.37 327.56 C 892.55 323.97 887.84 323.07 884.29 324.24 Z" />
<path fill="#000000" opacity="1.00" d=" M 944.09 316.24 C 949.89 314.79 956.40 315.26 961.57 318.44 C 973.35 326.09 972.83 346.80 960.16 353.32 C 952.84 356.70 943.37 356.27 937.02 351.03 C 926.26 341.57 929.26 319.82 944.09 316.24 M 947.11 324.26 C 941.89 326.39 941.14 332.96 941.66 337.88 C 941.74 342.40 945.06 347.50 950.05 347.14 C 954.31 347.63 957.86 344.03 958.64 340.07 C 959.57 335.72 959.43 330.72 956.87 326.93 C 954.75 323.84 950.49 323.17 947.11 324.26 Z" />
<path fill="#000000" opacity="1.00" d=" M 975.21 330.08 C 976.17 323.74 980.52 317.40 987.07 315.99 C 992.59 314.40 999.11 316.00 1002.47 320.89 C 1002.37 319.47 1002.29 318.05 1002.25 316.64 C 1005.69 316.58 1009.13 316.60 1012.58 316.56 C 1012.88 327.71 1012.61 338.87 1012.72 350.02 C 1012.78 354.80 1011.92 359.98 1008.50 363.56 C 1004.77 367.44 999.16 368.39 994.03 368.73 C 988.99 368.79 983.60 367.67 979.74 364.24 C 977.41 362.18 976.40 359.13 975.93 356.15 C 979.47 356.06 983.02 356.08 986.57 356.11 C 988.33 362.14 997.68 363.13 1000.85 357.89 C 1002.75 355.03 1002.10 351.43 1002.44 348.20 C 996.46 355.76 983.11 354.96 978.05 346.79 C 974.88 341.86 974.59 335.75 975.21 330.08 M 991.20 324.15 C 985.18 326.73 984.73 334.82 986.81 340.18 C 988.26 344.95 994.79 346.70 998.57 343.55 C 1003.17 339.69 1003.17 332.42 1000.56 327.43 C 998.84 324.09 994.58 323.14 991.20 324.15 Z" />
<path fill="#000000" opacity="1.00" d=" M 1042.18 322.12 C 1047.96 314.77 1059.13 313.76 1067.16 317.69 C 1071.85 319.98 1074.81 324.83 1075.19 329.98 C 1071.62 330.01 1068.05 330.01 1064.49 329.97 C 1064.04 323.95 1055.80 321.69 1051.89 325.86 C 1047.96 330.45 1047.78 337.49 1050.17 342.83 C 1051.98 347.19 1057.96 348.50 1061.67 345.78 C 1063.67 344.32 1064.23 341.80 1065.05 339.61 C 1068.43 339.59 1071.82 339.59 1075.22 339.60 C 1074.84 344.83 1072.15 350.05 1067.58 352.78 C 1062.95 355.63 1057.15 355.92 1051.94 354.92 C 1045.17 353.53 1039.71 347.87 1038.33 341.14 C 1037.35 334.65 1037.87 327.40 1042.18 322.12 Z" />
<path fill="#000000" opacity="1.00" d=" M 653.61 316.62 C 657.20 316.58 660.79 316.58 664.39 316.62 C 664.42 329.20 664.40 341.79 664.40 354.37 C 660.80 354.42 657.20 354.42 653.61 354.38 C 653.58 341.79 653.58 329.20 653.61 316.62 Z" />
<path fill="#000000" opacity="1.00" d=" M 734.00 316.60 C 737.57 316.59 741.15 316.54 744.73 316.70 C 744.70 329.23 744.69 341.76 744.74 354.29 C 741.16 354.46 737.57 354.41 734.00 354.40 C 734.00 341.80 734.00 329.20 734.00 316.60 Z" />
<path fill="#000000" opacity="1.00" d=" M 1020.62 316.61 C 1024.20 316.58 1027.79 316.58 1031.39 316.62 C 1031.42 329.20 1031.41 341.79 1031.39 354.38 C 1027.79 354.42 1024.20 354.42 1020.62 354.39 C 1020.58 341.80 1020.58 329.20 1020.62 316.61 Z" />
<path fill="#000000" opacity="1.00" d=" M 415.97 383.95 C 422.47 376.19 434.70 374.85 443.33 379.64 C 448.16 382.23 451.30 387.29 451.96 392.69 C 450.30 392.70 448.64 392.71 446.99 392.72 C 445.98 390.03 444.99 387.20 442.80 385.22 C 436.03 378.61 423.45 380.44 418.64 388.51 C 413.58 396.63 413.68 407.83 419.15 415.72 C 423.12 421.46 431.10 423.63 437.58 421.38 C 443.42 419.23 446.98 413.16 447.45 407.15 C 449.10 407.11 450.76 407.08 452.44 407.06 C 452.09 413.76 448.77 420.39 442.99 423.99 C 436.33 427.73 427.77 427.51 421.15 423.82 C 415.39 420.53 411.75 414.39 410.55 407.99 C 409.13 399.73 410.33 390.47 415.97 383.95 Z" />
<path fill="#000000" opacity="1.00" d=" M 346.59 378.00 C 348.19 377.99 349.80 378.00 351.40 378.00 C 351.38 393.89 351.45 409.79 351.37 425.68 C 349.91 425.69 348.45 425.70 347.00 425.72 C 347.00 423.90 347.00 422.08 347.00 420.27 C 342.01 427.57 330.63 428.91 324.31 422.62 C 318.07 415.60 317.70 404.37 322.37 396.43 C 327.52 387.91 341.74 387.66 346.79 396.42 C 346.38 390.29 346.68 384.14 346.59 378.00 M 331.47 394.59 C 328.91 395.53 326.85 397.55 325.74 400.02 C 323.01 405.95 323.23 413.48 327.18 418.81 C 331.29 424.50 341.04 423.50 344.35 417.47 C 347.34 411.99 347.39 404.90 344.51 399.38 C 342.11 394.90 336.18 392.73 331.47 394.59 Z" />
<path fill="#000000" opacity="1.00" d=" M 546.27 378.03 C 547.84 378.01 549.41 377.99 551.00 377.99 C 550.96 393.91 551.07 409.84 550.95 425.77 C 549.40 425.72 547.86 425.68 546.33 425.64 C 546.22 409.77 546.35 393.90 546.27 378.03 Z" />
<path fill="#000000" opacity="1.00" d=" M 495.00 380.59 C 496.45 380.59 497.91 380.60 499.38 380.61 C 499.42 384.04 499.42 387.48 499.35 390.91 C 501.72 390.98 504.10 391.01 506.48 391.11 C 506.44 392.34 506.41 393.57 506.39 394.81 C 504.05 394.88 501.70 394.92 499.37 395.04 C 499.60 403.04 499.08 411.07 499.62 419.05 C 499.61 422.76 503.95 421.98 506.43 422.04 C 506.40 423.32 506.37 424.61 506.35 425.90 C 502.46 425.95 496.65 426.93 495.17 422.11 C 494.75 413.05 495.13 403.97 495.00 394.91 C 493.00 394.90 491.00 394.90 489.01 394.91 C 489.00 393.60 488.99 392.30 488.99 391.00 C 490.99 390.99 492.99 390.99 495.00 391.00 C 495.00 387.53 495.00 384.06 495.00 380.59 Z" />
<path fill="#000000" opacity="1.00" d=" M 361.18 395.10 C 366.44 388.42 377.77 388.19 383.48 394.40 C 387.01 398.61 388.29 404.29 387.89 409.69 C 379.13 409.74 370.37 409.69 361.62 409.71 C 361.92 413.48 363.03 417.42 365.90 420.05 C 369.19 423.05 374.42 423.32 378.23 421.21 C 380.90 419.65 382.24 416.75 383.29 413.99 C 384.88 414.00 386.47 414.03 388.07 414.07 C 386.80 417.77 385.40 421.79 382.01 424.09 C 376.83 427.41 369.84 427.56 364.47 424.60 C 359.24 421.38 356.91 414.97 357.06 409.05 C 356.85 404.13 357.93 398.93 361.18 395.10 M 361.92 405.62 C 369.07 405.50 376.23 405.74 383.38 405.49 C 382.98 399.93 379.01 394.17 373.05 393.91 C 366.78 393.70 362.01 399.68 361.92 405.62 Z" />
<path fill="#000000" opacity="1.00" d=" M 465.87 390.70 C 470.47 389.62 475.75 389.42 480.03 391.76 C 483.62 393.81 484.66 398.17 484.70 402.01 C 484.77 408.39 484.62 414.77 484.78 421.15 C 485.97 421.31 487.18 421.44 488.40 421.56 C 488.39 422.54 488.39 424.49 488.39 425.46 C 486.34 425.60 484.09 426.15 482.23 424.98 C 480.62 424.18 480.54 422.15 479.99 420.67 C 475.67 427.10 466.06 428.63 459.79 424.29 C 454.70 420.56 454.73 411.47 460.37 408.25 C 466.07 404.94 473.03 406.20 479.06 404.00 C 480.74 401.03 479.97 396.79 476.84 395.13 C 473.30 393.39 468.84 393.47 465.42 395.46 C 463.20 396.86 462.57 399.49 462.15 401.90 C 460.62 401.90 459.09 401.91 457.56 401.92 C 457.55 396.86 460.79 391.87 465.87 390.70 M 462.97 411.91 C 459.60 414.14 460.56 419.36 463.74 421.29 C 467.97 423.83 473.65 422.34 477.11 419.13 C 480.11 416.06 480.20 411.55 480.03 407.55 C 474.51 409.62 468.04 408.59 462.97 411.91 Z" />
<path fill="#000000" opacity="1.00" d=" M 520.51 390.47 C 524.95 389.72 529.92 389.50 533.99 391.79 C 536.88 393.45 538.37 396.82 538.38 400.08 C 538.52 406.57 538.26 413.07 538.46 419.57 C 538.47 421.35 540.61 421.87 542.03 421.38 C 541.97 422.82 541.91 424.27 541.83 425.73 C 539.55 425.82 537.28 425.59 535.18 424.67 C 534.70 423.26 534.29 421.84 533.99 420.39 C 530.05 426.96 520.77 428.41 514.38 424.79 C 510.38 422.47 509.30 417.20 510.45 413.01 C 511.48 409.72 514.58 407.53 517.84 406.78 C 522.75 405.20 528.14 405.88 532.94 403.98 C 533.31 402.90 533.69 401.83 534.08 400.76 C 533.64 394.01 525.23 392.40 520.15 395.07 C 517.25 396.06 516.64 399.30 515.96 401.89 C 514.48 401.90 513.01 401.91 511.55 401.92 C 511.36 396.53 515.19 391.51 520.51 390.47 M 517.43 411.44 C 514.19 413.06 513.92 418.15 516.66 420.36 C 520.24 423.96 526.38 422.75 530.07 419.93 C 533.93 417.05 534.13 411.78 534.05 407.40 C 528.73 409.60 522.57 408.68 517.43 411.44 Z" />
<path fill="#000000" opacity="1.00" d=" M 598.54 395.91 C 601.34 391.32 606.91 389.24 612.11 390.08 C 617.38 390.18 621.93 394.66 621.94 399.96 C 622.09 408.54 621.95 417.13 622.00 425.71 C 620.54 425.70 619.08 425.70 617.64 425.69 C 617.25 417.12 618.24 408.47 617.04 399.95 C 616.27 394.74 609.91 392.60 605.49 394.61 C 601.16 396.05 598.70 400.68 598.73 405.06 C 598.63 411.92 598.78 418.78 598.67 425.65 C 597.12 425.68 595.58 425.72 594.04 425.76 C 593.94 414.17 594.02 402.59 594.00 391.00 C 595.58 390.99 597.17 390.99 598.76 391.00 C 598.70 392.63 598.64 394.27 598.54 395.91 Z" />
<path fill="#000000" opacity="1.00" d=" M 668.48 390.54 C 672.56 389.72 677.02 389.59 680.96 391.13 C 684.52 392.49 686.63 396.28 686.69 399.98 C 686.84 407.03 686.47 414.09 686.90 421.13 C 688.06 421.29 689.23 421.43 690.41 421.56 C 690.40 422.56 690.38 424.55 690.36 425.54 C 688.32 425.64 686.10 426.09 684.27 424.89 C 682.55 424.08 682.65 421.86 682.29 420.27 C 678.55 426.78 669.59 428.31 663.19 425.10 C 656.99 422.08 656.43 411.85 662.42 408.30 C 667.67 405.32 673.97 405.88 679.68 404.62 C 683.43 403.09 682.47 397.54 679.67 395.51 C 675.63 393.13 670.05 393.32 666.42 396.38 C 665.06 397.92 664.78 400.02 664.19 401.92 C 662.75 401.91 661.31 401.90 659.88 401.89 C 659.51 396.61 663.33 391.65 668.48 390.54 M 666.22 411.17 C 662.97 412.44 661.93 416.92 664.15 419.58 C 667.82 424.30 675.30 422.89 679.20 419.18 C 682.37 416.19 682.19 411.57 682.15 407.57 C 676.98 409.40 671.22 408.81 666.22 411.17 Z" />
<path fill="#000000" opacity="1.00" d=" M 558.27 391.04 C 559.84 391.01 561.41 390.99 563.00 390.98 C 563.02 398.32 562.96 405.65 563.01 412.99 C 563.21 416.21 563.93 420.05 567.11 421.67 C 570.67 423.10 575.39 423.05 578.18 420.07 C 581.07 417.21 581.98 412.93 582.07 409.00 C 582.13 403.00 582.07 396.99 582.09 390.99 C 583.63 391.00 585.18 391.01 586.73 391.03 C 586.59 402.61 586.90 414.20 586.57 425.77 C 585.50 425.74 583.35 425.66 582.27 425.62 C 582.29 423.80 582.33 422.00 582.44 420.20 C 578.49 426.80 568.87 428.72 562.60 424.38 C 559.12 421.71 558.44 417.06 558.29 412.96 C 558.26 405.65 558.33 398.35 558.27 391.04 Z" />
<path fill="#000000" opacity="1.00" d=" M 625.57 390.99 C 627.27 390.99 628.98 391.01 630.70 391.03 C 634.23 400.55 638.13 409.94 641.53 419.52 C 645.19 410.08 648.41 400.48 651.95 391.00 C 653.54 390.99 655.13 390.99 656.73 391.00 C 651.85 403.97 647.01 416.95 642.10 429.90 C 640.87 433.00 639.56 436.48 636.34 438.00 L 629.15 438.00 C 629.10 436.70 629.06 435.41 629.02 434.13 C 631.26 433.90 634.10 434.75 635.80 432.82 C 637.46 430.57 638.58 427.87 639.12 425.13 C 634.91 413.64 630.01 402.40 625.57 390.99 Z" />
</g>
</svg>
